<svg width="142" height="30" viewBox="0 0 142 30" fill="none" xmlns="http://www.w3.org/2000/svg">
<path d="M0.677063 18.6822C0.860987 14.0185 2.44859 10.329 6.83872 8.61264C10.792 7.06703 14.6945 7.37089 18.0818 10.1976C22.5063 13.8899 22.816 22.5472 18.7506 26.8793C14.9087 30.9734 7.60255 31.0336 3.58016 26.9969C1.34303 24.7518 0.721566 21.921 0.677063 18.6822ZM15.2882 12.7055C11.5641 10.1138 7.30311 10.8713 5.73036 14.5214C4.58096 17.189 4.47749 19.978 5.53747 22.7338C6.54593 25.3556 8.60853 26.7017 11.3826 26.6105C13.9918 26.5247 16.0381 25.0867 16.7865 22.4609C17.7293 19.153 17.7605 15.8806 15.2882 12.7055Z" fill="#E45934"/>
<path d="M23.8046 29.383C23.5443 28.5871 23.3983 27.8634 23.397 27.1395C23.3813 18.278 23.3868 9.41643 23.3868 0.378529C24.7373 0.378529 25.9459 0.378529 27.4574 0.378529C27.4574 3.61863 27.4574 6.88881 27.4574 10.2013C29.2559 9.43796 30.7229 8.48015 32.3094 8.20053C38.8103 7.0547 43.6597 12.1086 43.3437 19.5137C43.075 25.8109 39.5442 30.082 34.2317 29.9859C32.0799 29.947 29.9461 28.914 27.7205 28.3108C27.5027 30.4927 25.4567 29.2806 23.8046 29.383ZM28.8612 13.7386C27.0331 16.7485 27.1249 19.9493 28.2079 23.1087C28.9531 25.2823 30.6351 26.6443 33.0329 26.7268C35.5118 26.812 37.5163 25.6393 38.1406 23.304C38.7283 21.1057 38.8486 18.6948 38.6938 16.41C38.5351 14.069 37.1307 12.2928 34.7453 11.5882C32.4403 10.9074 30.5518 11.6579 28.8612 13.7386Z" fill="#E45932"/>
<path d="M50.0114 23.1146C48.34 18.443 46.7388 13.9298 45.1337 9.40561C48.9252 8.45801 49.1905 8.59569 50.2958 11.9586C51.6748 16.1541 53.0565 20.3488 54.6252 25.1156C55.2141 23.8339 55.6958 22.9973 55.9937 22.0997C57.0861 18.8073 58.1289 15.4983 59.1684 12.1887C60.2578 8.72052 60.2937 8.68926 64.3501 9.27755C62.7465 13.8159 61.1589 18.3184 59.5639 22.8183C58.9474 24.5575 58.1262 26.2498 57.7358 28.0372C57.2523 30.2506 55.7 29.7969 54.1966 29.964C52.4783 30.155 52.073 29.1574 51.6787 27.8759C51.2014 26.3247 50.6187 24.806 50.0114 23.1146Z" fill="#E35933"/>
<path d="M66.8797 13.6462C68.8437 8.6343 74.5459 6.5542 79.8069 8.20144C84.3426 9.62157 86.7618 14.1685 85.9122 19.8759C80.7629 19.8759 75.5624 19.8759 70.3746 19.8759C70.335 23.3188 71.6944 25.3392 74.4462 26.2214C77.1006 27.0723 79.4522 26.0444 81.3212 23.9888C82.2071 23.0145 83.9505 22.8199 85.73 22.1004C85.4832 25.0379 84.2592 26.5778 82.7028 27.8192C76.7004 32.6066 67.23 29.0203 66.212 21.4291C65.8809 18.9594 66.5866 16.3507 66.8797 13.6462ZM71.021 13.6086C70.6835 14.5419 70.346 15.4751 69.9592 16.5446C74.1408 16.5446 77.9896 16.5446 81.9358 16.5446C81.8214 13.9003 80.6326 12.2158 78.3428 11.3576C75.6699 10.3558 73.3107 11.0442 71.021 13.6086Z" fill="#E35933"/>
<path d="M91.7729 10.8666C91.7959 11.3982 91.8171 11.7504 91.8855 12.8894C93.6397 9.62248 95.8148 8.17626 99.1748 8.99496C99.1748 10.1093 99.1748 11.2972 99.1748 12.4795C93.7131 13.3157 91.8622 15.0544 91.7822 19.4602C91.7339 22.1184 91.765 24.778 91.7611 27.4369C91.76 28.2362 91.761 29.0355 91.761 29.9875C90.3895 29.9875 89.1886 29.9875 87.8558 29.9875C87.8558 23.1427 87.8558 16.3786 87.8558 9.22677C89.1731 9.98533 91.198 7.70527 91.7729 10.8666Z" fill="#E35933"/>
<path d="M105.768 8.42995C108.48 8.41981 111.102 8.08791 113.55 8.59457C116.457 9.19604 118.008 11.6483 118.006 14.4609C116.139 14.6699 114.438 15.1405 113.289 12.6905C112.411 10.8181 108.278 10.6118 106.658 11.9748C105.351 13.0746 105.464 14.862 107.015 15.6196C107.991 16.0961 109.129 16.2328 110.184 16.5542C112.085 17.133 114.038 17.5951 115.858 18.366C117.929 19.2425 119.012 20.9632 119.062 23.2626C119.112 25.6003 118.179 27.4094 116.173 28.6431C112.944 30.6281 106.745 30.389 103.698 28.0981C101.903 26.7483 100.815 24.9968 100.964 22.4926C102.21 22.4926 103.367 22.4926 104.552 22.4926C106.409 26.1848 109.039 27.6046 112.381 26.3362C113.343 25.9711 114.528 24.7254 114.575 23.8292C114.621 22.9374 113.559 21.5487 112.642 21.1384C110.85 20.3366 108.726 20.287 106.919 19.5087C105.227 18.7799 103.304 17.8371 102.302 16.4123C100.289 13.5515 101.862 10.2269 105.768 8.42995Z" fill="#E35B36"/>
<path d="M137.94 19.9838C133.599 19.9833 129.475 19.9833 125.372 19.9833C125.121 22.8008 126.539 25.2355 128.842 26.1715C131.282 27.1634 134.553 26.7181 135.682 24.7062C136.934 22.4752 138.628 22.7572 140.523 22.9213C140.221 27.2007 135.632 30.3622 130.421 29.9517C124.165 29.4589 120.24 24.3933 120.914 17.6845C121.59 10.9623 126.167 7.11465 132.577 7.87997C138.498 8.58683 141.767 13.1926 140.897 19.9842C140.015 19.9842 139.086 19.9842 137.94 19.9838ZM135.541 12.9046C133.382 10.7737 130.85 10.5556 128.236 11.7555C126.244 12.6701 125.231 14.3769 125.139 16.621C129.173 16.621 133.002 16.621 137.273 16.621C136.664 15.2396 136.206 14.202 135.541 12.9046Z" fill="#E35933"/>
<path d="M30.214 13.4695C31.8095 11.5529 33.6822 10.8094 35.9677 11.4839C38.333 12.1819 39.7256 13.9415 39.8829 16.2608C40.0364 18.5243 39.9171 20.9127 39.3344 23.0905C38.7153 25.404 36.7278 26.5658 34.2697 26.4814C31.8921 26.3996 30.2243 25.0504 29.4854 22.897C28.4115 19.767 28.3205 16.5961 30.214 13.4695Z" fill="#F9F3F0"/>
<path d="M135.688 13.0725C136.245 14.2291 136.699 15.2571 137.303 16.6256C133.067 16.6256 129.271 16.6256 125.271 16.6256C125.362 14.4025 126.366 12.7116 128.342 11.8055C130.934 10.6168 133.444 10.8329 135.688 13.0725Z" fill="#FAEDE8"/>
<path d="M70.4134 13.6283C72.5862 11.2198 74.9255 10.5378 77.5759 11.5303C79.8464 12.3805 81.0252 14.0493 81.1386 16.669C77.2257 16.669 73.4093 16.669 69.263 16.669C69.6465 15.6095 69.9812 14.6849 70.4134 13.6283Z" fill="#FAEDE8"/>
<path d="M15.2697 12.8797C17.6166 15.8967 17.5856 19.1386 16.6508 22.4157C15.9087 25.017 13.8796 26.4416 11.2924 26.5266C8.54169 26.6169 6.49646 25.2834 5.49651 22.686C4.44545 19.956 4.54805 17.1929 5.68776 14.5502C7.24727 10.9341 11.4723 10.1836 15.2697 12.8797Z" fill="#F9F3F0"/>
</svg>
