<svg width="32" height="32" viewBox="0 0 32 32" fill="none" xmlns="http://www.w3.org/2000/svg">
<path d="M16 28C9.3724 28 4 22.6276 4 16C4 9.3724 9.3724 4 16 4C22.6276 4 28 9.3724 28 16C28 22.6276 22.6276 28 16 28ZM12.268 17.404L12.2836 17.3956L13.3276 20.8396C13.462 21.2128 13.6468 21.28 13.8712 21.2488C14.0968 21.2188 14.2156 21.0976 14.3632 20.956L15.7888 19.5784L18.8488 21.844C19.408 22.1524 19.81 21.9928 19.9492 21.3256L21.9376 11.9392C22.1572 11.0656 21.7732 10.7152 21.0952 10.9936L9.4156 15.5056C8.6188 15.8248 8.6236 16.2712 9.2716 16.4692L12.268 17.4052V17.404Z" fill="#E85F39"/>
</svg>
