<svg width="41" height="41" viewBox="0 0 41 41" fill="none" xmlns="http://www.w3.org/2000/svg">
<path d="M15.6168 39.6889C8.57147 37.7867 3.87076 33.5859 1.11982 26.4527C5.96581 27.6306 10.3224 28.6847 14.6764 29.7494C18.767 30.7497 22.8696 31.7066 26.9367 32.7955C28.4957 33.2129 29.1637 32.9146 29.5587 31.2424C31.4078 23.4136 33.3924 15.6168 35.3386 7.7681C39.7951 11.0971 41.7124 20.961 38.6532 27.8918C34.6436 36.9758 25.3504 41.806 15.6168 39.6889Z" fill="#E7562E"/>
<path d="M0.381243 16.9375C0.697091 15.6197 0.978709 14.4864 1.31496 13.1331C6.29383 14.3505 11.082 15.5047 15.8611 16.6952C19.3987 17.5764 19.4543 17.5792 20.3325 14.0319C21.4303 9.59728 22.4888 5.15297 23.6927 0.182781C26.0238 1.14109 28.1938 1.94929 30.2655 2.95921C30.6567 3.14991 30.9266 4.2072 30.7962 4.75623C29.1757 11.578 27.4359 18.3714 25.8162 25.1934C25.4839 26.5932 24.8698 27.058 23.5023 26.72C16.1937 24.9134 8.87341 23.1535 1.57178 21.3193C-1.09095 20.6504 0.455695 18.6122 0.381243 16.9375Z" fill="#E7562E"/>
<path d="M17.8736 0.298079C17.3253 3.64875 16.6618 6.99054 15.8471 10.2951C15.7597 10.6499 14.7295 11.0831 14.2442 10.9789C10.8715 10.2553 7.52717 9.39925 3.85053 8.50723C7.51043 3.70526 12.0585 1.07301 17.8736 0.298079Z" fill="#E45932"/>
</svg>
